:FULLY-SPECIFIED
:FORCE-ALL-JOINTS-BE-3DOF
:DEGREES
815
root 1.97634 16.6672 22.5885 4.65405 2.28232 -6.52324
lfemur -38.494 -0.525229 0.479461
ltibia 22.7054 -0 0
lfoot -9.57966 8.48072 0.140979
ltoes 15.0247 -0 0
rfemur 0.970668 4.38492 21.8017
rtibia 23.1455 -0 0
rfoot -22.0493 -11.3107 0.00308191
rtoes -22.6875 0 0
lowerback 0.743085 6.07913 5.58451
upperback -0.146956 8.1531 -0.353295
thorax 0.263117 4.08202 -3.42795
lowerneck -5.81892 -1.82834 2.81782
upperneck -0.647163 -2.63111 1.49361
head 0.748237 -1.29335 -0.0682656
lclavicle 7.70291e-15 -1.07344e-14 0
lhumerus -53.2747 -7.10694 91.4813
lradius 54.4148 -0 0
lwrist 20.1359 0 0
lhand -9.98918 5.16742 0.00268973
lfingers 7.12502 -0 0
lthumb 15.994 34.5259 0.00230702
rclavicle 7.70291e-15 -1.07344e-14 0
rhumerus -30.9271 45.4101 -111.129
rradius 67.9207 -0 0
rwrist -0.887995 0 0
rhand -11.0173 -24.9103 0.0512703
rfingers 7.12502 -0 0
rthumb 15.0021 -54.3117 0.0555915
816
root 2.00374 16.6668 22.7298 4.7923 0.762233 -6.76529
lfemur -38.3063 -0.422543 1.15747
ltibia 20.7521 -0 0
lfoot -9.00038 9.47157 0.0754915
ltoes 15.345 -0 0
rfemur 1.78687 4.98842 21.9916
rtibia 22.1033 -0 0
rfoot -21.9654 -11.1605 0.00165101
rtoes -22.9591 0 0
lowerback 0.645895 6.1858 5.73596
upperback -0.15322 8.29118 -0.265534
thorax 0.331149 4.15205 -3.40901
lowerneck -5.79992 -1.70851 2.93181
upperneck -0.592473 -2.47899 1.42498
head 0.759234 -1.21821 -0.104843
lclavicle 7.70291e-15 -1.07344e-14 0
lhumerus -53.1673 -7.0229 91.4143
lradius 53.7212 -0 0
lwrist 19.7643 0 0
lhand -9.86094 5.25326 0.00144092
lfingers 7.12502 -0 0
lthumb 16.1175 34.6024 0.00123589
rclavicle 7.70291e-15 -1.07344e-14 0
rhumerus -30.6465 45.4267 -110.803
rradius 67.6492 -0 0
rwrist -1.23318 0 0
rhand -10.3029 -24.6172 0.0274608
rfingers 7.12502 -0 0
rthumb 15.691 -53.9822 0.0297754
817
root 2.03115 16.6664 22.8712 4.93696 -0.75725 352.989
lfemur -38.1174 -0.322086 1.83581
ltibia 18.7988 0 0
lfoot -8.42232 10.4617 0
ltoes 15.6653 0 0
rfemur 2.60588 5.58915 22.1904
rtibia 21.0611 0 0
rfoot -21.8814 -11.0103 0
rtoes -23.2307 0 0
lowerback 0.548969 6.29273 5.88725
upperback -0.159273 8.42926 -0.177758
thorax 0.39921 4.22205 -3.38998
lowerneck -5.78068 -1.58872 3.04583
upperneck -0.537971 -2.32681 1.3565
head 0.770183 -1.14307 -0.141404
lclavicle -1.31496e-13 -7.95139e-16 0
lhumerus -53.0599 -6.93873 91.3475
lradius 53.0275 0 0
lwrist 19.3926 0 0
lhand -9.73271 5.33909 0
lfingers 7.12502 0 0
lthumb 16.241 34.6788 0
rclavicle -1.31496e-13 -7.95139e-16 0
rhumerus -30.3656 45.4422 -110.478
rradius 67.3777 0 0
rwrist -1.57836 0 0
rhand -9.5887 -24.3245 0
rfingers 7.12502 0 0
rthumb 16.3797 -773.653 0
818
root 2.0907 16.6401 23.0603 4.63292 -1.13139 -7.01752
lfemur -37.7355 -0.432278 1.61766
ltibia 19.3931 -0 0
lfoot -7.87451 10.1228 -0.0243596
ltoes 14.9369 -0 0
rfemur 2.98222 4.96172 21.6783
rtibia 21.9109 -0 0
rfoot -21.3027 -10.7946 0.0163756
rtoes -24.5981 0 0
lowerback 0.375214 6.3251 5.81252
upperback -0.220802 8.46073 -0.110721
thorax 0.413689 4.23728 -3.26419
lowerneck -5.7552 -1.61018 3.11713
upperneck -0.153726 -2.36915 1.33567
head 0.888847 -1.15691 -0.164925
lclavicle -1.31496e-13 -7.95139e-16 0
lhumerus -53.2477 -6.65867 91.0755
lradius 52.8752 -0 0
lwrist 19.1645 0 0
lhand -9.26275 5.41197 0.00448946
lfingers 7.12502 -0 0
lthumb 16.6927 34.7048 0.00153908
rclavicle -1.31496e-13 -7.95139e-16 0
rhumerus -30.2598 44.8012 -109.272
rradius 67.1313 -0 0
rwrist -1.41958 0 0
rhand -9.91763 -23.9091 -0.0179154
rfingers 7.12502 -0 0
rthumb 16.0627 -53.2592 -0.0163649
819
root 2.15026 16.6139 23.2494 4.32888 -1.50556 -7.02205
lfemur -37.3531 -0.541012 1.39878
ltibia 19.9874 -0 0
lfoot -7.32657 9.78368 -0.0454775
ltoes 14.2084 -0 0
rfemur 3.36384 4.33767 21.1625
rtibia 22.7607 -0 0
rfoot -20.7239 -10.5788 0.0305717
rtoes -25.9655 0 0
lowerback 0.201406 6.35724 5.73769
upperback -0.282299 8.49228 -0.0437123
thorax 0.428202 4.25248 -3.1384
lowerneck -5.72974 -1.63167 3.18842
upperneck 0.230545 -2.41135 1.31457
head 1.00752 -1.1707 -0.188474
lclavicle -1.31496e-13 -7.95139e-16 0
lhumerus -53.4367 -6.3795 90.8027
lradius 52.723 -0 0
lwrist 18.9364 0 0
lhand -8.79278 5.48489 0.00838096
lfingers 7.12502 -0 0
lthumb 17.1445 34.7308 0.00287314
rclavicle -1.31496e-13 -7.95139e-16 0
rhumerus -30.1741 44.1587 -108.08
rradius 66.8849 -0 0
rwrist -1.26081 0 0
rhand -10.2467 -23.4936 -0.0334452
rfingers 7.12502 -0 0
rthumb 15.7456 -52.8653 -0.0305504
820
root 2.20981 16.5876 23.4385 4.02481 -1.87975 -7.02459
lfemur -36.9704 -0.648283 1.17918
ltibia 20.5816 -0 0
lfoot -6.77852 9.44438 -0.063351
ltoes 13.48 -0 0
rfemur 3.75077 3.71709 20.643
rtibia 23.6105 -0 0
rfoot -20.145 -10.3628 0.0425865
rtoes -27.333 0 0
lowerback 0.0275443 6.38916 5.66275
upperback -0.343764 8.52389 0.0232674
thorax 0.442749 4.26765 -3.0126
lowerneck -5.70431 -1.65319 3.2597
upperneck 0.614844 -2.45341 1.29317
head 1.12619 -1.18443 -0.212052
lclavicle -1.31496e-13 -7.95139e-16 0
lhumerus -53.627 -6.10123 90.5292
lradius 52.5707 -0 0
lwrist 18.7083 0 0
lhand -8.32281 5.55784 0.0116742
lfingers 7.12502 -0 0
lthumb 17.5962 34.7568 0.00400211
rclavicle -1.31496e-13 -7.95139e-16 0
rhumerus -30.1077 43.5152 -106.903
rradius 66.6385 -0 0
rwrist -1.10203 0 0
rhand -10.5758 -23.078 -0.0465881
rfingers 7.12502 -0 0
rthumb 15.4284 -52.4714 -0.0425553
